<?xml version="1.0" standalone="no"?>
<!DOCTYPE svg PUBLIC "-//W3C//DTD SVG 20010904//EN"
 "http://www.w3.org/TR/2001/REC-SVG-20010904/DTD/svg10.dtd">
<svg version="1.0" xmlns="http://www.w3.org/2000/svg"
 width="750.000000pt" height="450.000000pt" viewBox="0 0 750.000000 450.000000"
 preserveAspectRatio="xMidYMid meet">

<g transform="translate(0.000000,450.000000) scale(0.100000,-0.100000)"
fill="#000000" stroke="none">
<path d="M3703 3696 c-105 -28 -128 -39 -143 -66 -16 -30 -12 -85 8 -102 32
-29 59 -29 162 -2 252 65 420 -2 420 -166 0 -50 -3 -56 -43 -94 -24 -23 -105
-74 -182 -115 -77 -40 -171 -94 -210 -118 -91 -59 -220 -191 -268 -274 -33
-57 -45 -69 -83 -84 -71 -27 -186 -107 -237 -166 -110 -124 -151 -263 -145
-484 4 -120 8 -151 32 -220 54 -158 196 -338 307 -390 123 -57 264 -8 285 100
10 53 -15 85 -113 145 -221 135 -304 287 -289 535 9 166 42 255 94 255 35 0
122 -87 177 -177 1 -2 33 4 71 12 105 22 264 18 335 -10 11 -4 24 6 41 32 14
21 47 62 73 91 43 47 52 53 83 50 48 -4 67 -35 88 -137 12 -63 15 -114 11
-195 -13 -277 -157 -552 -452 -866 -65 -70 -117 -135 -131 -165 -57 -122 -9
-244 109 -276 180 -48 337 99 528 496 128 266 177 454 186 715 l6 165 32 36
c41 46 49 89 35 191 -30 215 -148 416 -315 536 -27 19 -52 37 -54 39 -3 2 32
38 76 81 101 98 134 159 141 258 11 171 -74 299 -241 363 -96 36 -270 40 -394
7z"/>
<path d="M3452 2053 c-7 -3 -19 -18 -28 -35 -20 -38 -5 -81 35 -98 76 -31 139
69 75 119 -26 20 -55 25 -82 14z"/>
<path d="M3869 2042 c-33 -27 -30 -78 5 -109 35 -30 61 -29 91 2 34 33 33 77
-1 104 -33 26 -65 27 -95 3z"/>
<path d="M3644 1806 c-24 -18 -11 -44 31 -65 24 -12 32 -11 62 3 66 32 51 76
-26 76 -26 0 -56 -6 -67 -14z"/>
</g>
</svg>
