<?xml version="1.0" encoding="UTF-8" standalone="no"?>
<!-- Created with Inkscape (http://www.inkscape.org/) -->
<svg
   xmlns:dc="http://purl.org/dc/elements/1.1/"
   xmlns:cc="http://creativecommons.org/ns#"
   xmlns:rdf="http://www.w3.org/1999/02/22-rdf-syntax-ns#"
   xmlns:svg="http://www.w3.org/2000/svg"
   xmlns="http://www.w3.org/2000/svg"
   xmlns:sodipodi="http://sodipodi.sourceforge.net/DTD/sodipodi-0.dtd"
   xmlns:inkscape="http://www.inkscape.org/namespaces/inkscape"
   width="167.14287"
   height="167.14287"
   id="svg2"
   sodipodi:version="0.32"
   inkscape:version="0.46"
   version="1.0"
   sodipodi:docname="logo_chat_lui.jpg.svg"
   inkscape:output_extension="org.inkscape.output.svg.inkscape">
  <defs
     id="defs4" />
  <sodipodi:namedview
     id="base"
     pagecolor="#ffffff"
     bordercolor="#666666"
     borderopacity="1.0"
     inkscape:pageopacity="0.0"
     inkscape:pageshadow="2"
     inkscape:zoom="1.4"
     inkscape:cx="317.63854"
     inkscape:cy="80.297226"
     inkscape:document-units="px"
     inkscape:current-layer="layer1"
     showgrid="false"
     inkscape:window-width="1680"
     inkscape:window-height="994"
     inkscape:window-x="-4"
     inkscape:window-y="-4" />
  <metadata
     id="metadata7">
    <rdf:RDF>
      <cc:Work
         rdf:about="">
        <dc:format>image/svg+xml</dc:format>
        <dc:type
           rdf:resource="http://purl.org/dc/dcmitype/StillImage" />
      </cc:Work>
    </rdf:RDF>
  </metadata>
  <g
     inkscape:label="Calque 1"
     inkscape:groupmode="layer"
     id="layer1"
     transform="translate(-256.42859,-831.64792)">
    <g
       id="g3345">
      <path
         transform="matrix(0.6376812,0,0,0.6376812,148.46793,306.32173)"
         d="M 423.57143,954.86218 A 123.21429,123.21429 0 1 1 177.14286,954.86218 A 123.21429,123.21429 0 1 1 423.57143,954.86218 z"
         sodipodi:ry="123.21429"
         sodipodi:rx="123.21429"
         sodipodi:cy="954.86218"
         sodipodi:cx="300.35715"
         id="path3306"
         style="fill:#e6d000;fill-opacity:1;stroke:none;stroke-width:5.5;stroke-linecap:round;stroke-miterlimit:4;stroke-dasharray:none;stroke-dashoffset:0;stroke-opacity:1"
         sodipodi:type="arc" />
      <path
         transform="translate(256.42859,831.64792)"
         id="path3343"
         d="M 27.142857,45.000011 L 30.714286,108.57144 L 52.142857,125.7143 L 84.285714,132.85715 L 111.42857,127.14287 L 134.28571,112.14287 L 137.85714,78.571439 L 126.42857,53.571439 L 85.714286,73.571439 L 82.142857,82.857154 L 78.571429,74.285725 L 61.428571,62.142868 L 27.142857,45.000011 z"
         style="fill:#ffffff;fill-rule:evenodd;stroke:#000000;stroke-width:1px;stroke-linecap:butt;stroke-linejoin:miter;stroke-opacity:1;fill-opacity:1" />
      <g
         transform="matrix(0.9401709,0,0,0.9401709,53.747365,11.420059)"
         id="g3308">
        <path
           style="fill:#000000;fill-opacity:1;fill-rule:evenodd;stroke:none;stroke-width:1px;stroke-linecap:butt;stroke-linejoin:miter;stroke-opacity:1"
           clip-path="none"
           d="M 361.0625,911.625 C 356.61377,911.80078 304.08182,948.32765 303.96875,948.40625 C 300.88378,946.26546 252.18981,912.51425 247.875,912.34375 C 243.19858,912.15898 242.5,919.125 242.5,919.125 L 243.5625,989.84375 L 296.4375,1023.4375 C 296.4375,1023.4375 300.79688,1027.1797 304.8125,1027 C 308.82811,1026.8203 312.5,1022.7188 312.5,1022.7188 L 365.375,989.125 L 366.4375,918.4375 C 366.4375,918.43748 365.73889,911.4402 361.0625,911.625 z M 277.5,944.375 C 285.1584,944.375 295.21886,947.14482 296.125,954 C 294.46157,960.60581 285.16092,963.65623 277.5,963.65625 C 269.84373,963.65625 259.78142,961.10486 257.86485,954.25254 C 259.52921,947.40329 269.84612,944.37497 277.5,944.375 z M 331.4375,944.375 C 339.0959,944.375 349.15637,947.39736 350.0625,954 C 348.90415,959.8482 339.09843,963.65623 331.4375,963.65625 C 323.78123,963.65625 314.22402,960.34725 312.8125,954 C 314.22432,947.40329 323.78364,944.37497 331.4375,944.375 z M 253.40625,969.375 C 254.14624,969.32381 254.8844,969.56825 255.4375,970.0625 C 255.9906,970.55676 256.31172,971.25891 256.34375,972 C 256.34375,972 256.50665,974.94322 257.21875,978.5625 C 257.93084,982.18176 259.31376,986.40679 261.0625,988.46875 C 263.08157,990.84945 267.21715,994.13808 271.65625,996.6875 C 276.09534,999.2369 280.9424,1001.0304 284.09375,1001.0625 C 287.81243,1001.1004 291.77893,1000.4665 294.96875,999.375 C 297.89073,998.37509 299.93148,996.9226 300.875,995.71875 C 300.91882,993.87528 300.96072,992.25256 300.96875,991.6875 C 300.9727,991.40982 300.9697,991.32136 300.96875,991.25 C 300.89636,990.76169 300.97147,990.71012 301,990.0625 C 301.02325,989.53446 301.09352,987.94028 301.15625,986.40625 C 295.89432,982.86486 287.03124,976.43748 287.03125,976.4375 C 286.2292,975.86039 285.80197,974.88883 285.90625,973.90625 C 286.01053,972.92367 286.62594,972.05217 287.53125,971.65625 C 288.43656,971.26035 289.48902,971.40945 290.28125,972 C 290.28125,972 299.61959,978.85741 304.46875,982.09375 C 306.75733,980.56576 309.95334,978.30447 312.8125,976.25 C 316.03473,973.93462 317.33714,973.77359 317.90625,972.8125 C 318.47535,971.8514 319.58249,971.3057 320.6875,971.46875 C 321.7925,971.63178 322.70147,972.44672 322.96875,973.53125 C 323.23604,974.61575 322.80892,975.77963 321.90625,976.4375 C 321.90625,976.4375 319.24737,978.38528 316,980.71875 C 313.19982,982.73086 310.22259,984.8244 307.8125,986.4375 C 307.87427,987.94748 307.91444,989.53899 307.9375,990.0625 C 307.96488,990.68423 308.02648,990.7522 307.96875,991.1875 C 307.96843,991.25446 307.99548,991.37001 308,991.6875 C 308.00802,992.25257 308.01867,993.87534 308.0625,995.71875 C 309.00493,996.92309 311.04475,998.37437 313.96875,999.375 C 317.15856,1000.4666 321.12506,1001.1004 324.84375,1001.0625 C 327.99509,1001.0304 332.8734,999.23688 337.3125,996.6875 C 341.75159,994.1381 345.85592,990.84943 347.875,988.46875 C 349.62372,986.40681 351.00665,982.18173 351.71875,978.5625 C 352.43084,974.94325 352.59374,971.99998 352.59375,972 C 352.65588,970.58873 353.77706,969.45401 355.1875,969.375 C 355.97145,969.32912 356.72595,969.60094 357.28125,970.15625 C 357.83654,970.71154 358.13962,971.49728 358.09375,972.28125 C 358.09375,972.28125 357.91798,975.59454 357.125,979.625 C 356.33201,983.65544 355.04362,988.48489 352.0625,992 C 349.35171,995.1963 344.94419,998.6472 340.03125,1001.4688 C 335.1183,1004.2902 329.82608,1006.5124 324.90625,1006.5625 C 320.55345,1006.6068 316.06677,1005.9213 312.1875,1004.5938 C 309.1587,1003.5573 306.43184,1002.1535 304.46875,1000.125 C 302.50565,1002.1535 299.77879,1003.5573 296.75,1004.5938 C 292.87072,1005.9212 288.41529,1006.6068 284.0625,1006.5625 C 279.14266,1006.5124 273.81919,1004.2904 268.90625,1001.4688 C 263.9933,998.64725 259.58578,995.19629 256.875,992 C 253.89385,988.48491 252.60549,983.65543 251.8125,979.625 C 251.01951,975.59455 250.84375,972.28123 250.84375,972.28125 C 250.75472,970.77312 251.89884,969.4755 253.40625,969.375 z"
           id="path2456"
           sodipodi:nodetypes="ccscccsccccccsccccscccscssssscssscsssccsssscscssscsssssssscssssscssssssc" />
        <path
           sodipodi:type="arc"
           style="fill:#000000;fill-opacity:1;stroke:none;stroke-width:4;stroke-linecap:round;stroke-miterlimit:4;stroke-dasharray:none;stroke-dashoffset:0;stroke-opacity:1"
           id="path3268"
           sodipodi:cx="269.64285"
           sodipodi:cy="1060.2194"
           sodipodi:rx="3.5714285"
           sodipodi:ry="3.5714285"
           d="M 273.21428,1060.2194 A 3.5714285,3.5714285 0 1 1 266.07142,1060.2194 A 3.5714285,3.5714285 0 1 1 273.21428,1060.2194 z"
           transform="translate(7.5,-106.78571)" />
        <path
           transform="translate(61.5,-106.78571)"
           d="M 273.21428,1060.2194 A 3.5714285,3.5714285 0 1 1 266.07142,1060.2194 A 3.5714285,3.5714285 0 1 1 273.21428,1060.2194 z"
           sodipodi:ry="3.5714285"
           sodipodi:rx="3.5714285"
           sodipodi:cy="1060.2194"
           sodipodi:cx="269.64285"
           id="path3270"
           style="fill:#000000;fill-opacity:1;stroke:none;stroke-width:4;stroke-linecap:round;stroke-miterlimit:4;stroke-dasharray:none;stroke-dashoffset:0;stroke-opacity:1"
           sodipodi:type="arc" />
      </g>
    </g>
  </g>
</svg>
